<svg width="108" height="236" viewBox="0 0 108 236" fill="none" xmlns="http://www.w3.org/2000/svg">
<path d="M54 118H0C0 88.3759 24.3759 64 54 64C83.6241 64 108 88.3759 108 118H54Z" fill="white"/>
<path d="M54 118H108C108 147.624 83.6241 172 54 172C24.3759 172 0 147.624 0 118H54Z" fill="#00E0B8"/>
<path d="M81 54C95.9117 54 108 41.9117 108 27C108 12.0883 95.9117 0 81 0C66.0883 0 54 12.0883 54 27C54 41.9117 66.0883 54 81 54Z" fill="white"/>
<path d="M27 236C41.9117 236 54 223.912 54 209C54 194.088 41.9117 182 27 182C12.0883 182 0 194.088 0 209C0 223.912 12.0883 236 27 236Z" fill="#00E0B8"/>
</svg>
