<svg width="81.492" height="177.425" viewBox="0 0 81.492 177.425" fill="none" xmlns="http://www.w3.org/2000/svg">
  <g transform="translate(-294,-361)">
    <path d="M334.746 449.666H294C294 427.315 312.396 408.92 334.746 408.92C357.097 408.92 375.492 427.315 375.492 449.666H334.746Z" fill="#232F3E"></path>
    <path opacity="0.6" d="M334.746 449.666H375.492C375.492 472.017 357.097 490.412 334.746 490.412C312.396 490.412 294 472.017 294 449.666H334.746Z" fill="#232F3E"></path>
    <path d="M355.073 401.746C366.325 401.746 375.446 392.625 375.446 381.373C375.446 370.121 366.325 361 355.073 361C343.822 361 334.7 370.121 334.7 381.373C334.7 392.625 343.822 401.746 355.073 401.746Z" fill="#232F3E"></path>
    <path opacity="0.6" d="M314.419 538.425C325.671 538.425 334.792 529.303 334.792 518.052C334.792 506.8 325.671 497.679 314.419 497.679C303.167 497.679 294.046 506.8 294.046 518.052C294.046 529.303 303.167 538.425 314.419 538.425Z" fill="#232F3E"></path>
  </g>
</svg>